<?xml version="1.0" standalone="no"?>
<!DOCTYPE svg PUBLIC "-//W3C//DTD SVG 20010904//EN"
 "http://www.w3.org/TR/2001/REC-SVG-20010904/DTD/svg10.dtd">
<svg version="1.0" xmlns="http://www.w3.org/2000/svg"
 width="163.000000pt" height="163.000000pt" viewBox="0 0 163.000000 163.000000"
 preserveAspectRatio="xMidYMid meet">
<metadata>
Created by potrace 1.11, written by Peter Selinger 2001-2013
</metadata>
<g transform="translate(0.000000,163.000000) scale(0.100000,-0.100000)"
fill="#000000" stroke="none">
<path d="M714 1588 c-31 -24 -120 -111 -144 -143 -57 -74 -86 -111 -91 -115
-9 -8 -96 -144 -152 -240 -29 -49 -76 -110 -112 -145 -69 -67 -75 -83 -69
-191 4 -55 0 -83 -14 -120 -17 -42 -36 -118 -92 -374 -6 -25 -13 -72 -16 -105
-4 -52 -2 -64 18 -87 l23 -28 214 -1 c170 -1 216 2 227 13 9 8 16 44 19 93 3
44 8 96 11 116 9 62 -34 86 -97 54 -37 -20 -127 -37 -151 -30 -15 5 -16 14
-11 53 5 40 48 194 67 242 4 8 21 21 39 29 41 18 77 50 88 79 8 22 32 28 63
16 25 -9 19 -28 -15 -48 -44 -26 -69 -72 -69 -130 0 -52 -6 -44 118 -158 73
-67 171 -73 225 -14 15 17 38 43 51 57 51 56 59 76 54 141 -4 56 -8 64 -41 93
-50 43 -48 62 6 67 44 5 71 -9 82 -42 7 -21 47 -39 94 -42 27 -2 38 -9 50 -32
9 -16 23 -37 32 -46 9 -10 19 -30 22 -46 3 -16 15 -65 26 -109 12 -44 21 -97
21 -119 0 -37 -1 -38 -27 -31 -16 3 -31 13 -35 20 -9 14 -132 75 -154 75 -21
0 -44 -42 -40 -75 2 -17 7 -69 11 -118 6 -72 10 -90 27 -101 20 -14 50 -15
508 -18 65 0 76 3 93 23 11 13 16 31 13 44 -3 11 -10 63 -16 114 -6 51 -14
101 -19 110 -5 9 -12 38 -15 65 -21 152 -147 467 -265 661 -58 95 -179 259
-237 320 -127 136 -153 161 -208 201 -32 24 -64 44 -71 44 -7 0 -25 -10 -41
-22z m70 -413 c37 -39 108 -140 122 -173 26 -63 20 -65 -205 -69 -110 -1 -201
0 -201 3 0 10 43 89 56 104 7 8 43 53 80 99 93 118 85 112 109 82 11 -14 28
-35 39 -46z"/>
</g>
</svg>
